<?xml version="1.0" encoding="UTF-8"?>
<svg id="Layer_1" data-name="Layer 1" xmlns="http://www.w3.org/2000/svg" viewBox="0 0 179.84 177.4">
  <path d="M33.17,26.33S53.6,4.5,80.28,3.1s49.53,12.89,49.53,12.89l-13.79,17.49s-19.57-6.91-33.53-4.73-31.45,12.26-31.45,12.26l-17.87-14.68Z" fill="none" stroke="#231f20" stroke-miterlimit="10" stroke-width="6"/>
  <path d="M152.69,31.32s22.15,20.07,23.98,46.73c1.83,26.66-12.1,49.73-12.1,49.73l-17.71-13.51s6.6-19.67,4.2-33.6-12.76-31.25-12.76-31.25l14.39-18.1Z" fill="none" stroke="#231f20" stroke-miterlimit="10" stroke-width="6"/>
  <path d="M147.47,152.49s-21.04,21.24-47.75,21.88c-26.71.64-49.14-14.3-49.14-14.3l14.28-17.09s19.36,7.47,33.38,5.69,31.79-11.36,31.79-11.36l17.45,15.18Z" fill="none" stroke="#231f20" stroke-miterlimit="10" stroke-width="6"/>
  <path d="M26.3,145.83S4.49,125.4,3.1,98.72c-1.39-26.68,12.92-49.53,12.92-49.53l17.48,13.8s-6.92,19.56-4.75,33.53c2.17,13.96,12.25,31.46,12.25,31.46l-14.69,17.86Z" fill="none" stroke="#231f20" stroke-miterlimit="10" stroke-width="6"/>
</svg>